PathFileType	4	(X/Y/Z)	OpenSim_Sub08_CSStiffKnee_Gyro.trc
DataRate	CameraRate	NumFrames	NumMarkers	Units	OrigDataRate	OrigDataStartFrame	OrigNumFrames
100	100	13	8	m	100	1981	5282
Frame#	Time	torso_imu_offset_imu	pelvis_imu_offset_imu	tibia_r_imu_offset_imu	femur_r_imu_offset_imu	tibia_l_imu_offset_imu	femur_l_imu_offset_imu	toes_r_imu_offset_imu	toes_l_imu_offset_imu
				X1	Y1	Z1	X2	Y2	Z2	X3	Y3	Z3	X4	Y4	Z4	X5	Y5	Z5	X6	Y6	Z6	X7	Y7	Z7	X8		Y8	Z8	

1981	19.80000000	0.24382847	0.26069871	-0.37236753	-0.23401764	-0.35758976	-0.01247663	1.04486052	-0.10336226	-2.22009277	0.58943440	0.52214537	0.65749588	1.04808794	-0.67344527	1.23324236	0.43469061	-0.60027421	0.74769102	0.18707290	-4.07871869	-1.31661538	-0.53591290	-0.45489441	0.22034528
1982	19.81000000	0.11721781	0.22493627	-0.28048061	-0.40477224	-0.20641010	-0.01143093	1.65918721	-0.19625675	-2.29814905	0.59004230	0.30531500	0.72102409	1.12595447	-0.56107928	1.14195051	1.95526602	-0.66938051	1.06104509	0.20861698	-3.50814719	-1.65080629	-0.09034429	-0.32765350	0.30048354
1983	19.82000000	-0.01689920	0.17043834	-0.18981867	-0.45131629	-0.01420510	-0.03635353	1.76649315	-0.28564012	-2.29895876	0.54797654	0.13939138	0.78618927	0.59595016	-0.72929725	0.94850123	2.60252292	-0.65293512	1.16583938	-1.37504332	-2.54180279	-1.77343285	-0.26834671	-0.21618623	0.34944006
1984	19.83000000	-0.11209639	0.11448225	-0.13537082	-0.38986735	0.16184125	-0.05792459	1.41912805	-0.31863976	-2.18331077	0.41896404	0.02992225	0.81408032	0.00732687	-0.71181447	0.70796819	2.30215168	-0.58077127	0.99265338	-2.51533396	-1.12016926	-2.04981432	-0.42352450	-0.16052808	0.35785109
1985	19.84000000	-0.15459875	0.08137680	-0.13093617	-0.28309717	0.26073761	-0.04115824	0.68866350	-0.22163610	-1.89470404	0.22087443	-0.05763474	0.81176496	-0.47538165	-0.52830549	0.62372577	1.43811524	-0.63269530	0.75882085	-0.86252209	0.01273495	-2.69476350	-0.27760766	-0.09657582	0.31819246
1986	19.85000000	-0.14980463	0.06812330	-0.10882300	-0.15271759	0.24448917	0.01192619	-0.81764294	0.19399439	-1.14555656	0.11584211	-0.11624016	0.75482596	-0.90256252	-0.38987184	0.59709399	0.45907786	-0.70304301	0.58851036	1.14242443	1.29730197	-3.11453779	-0.12696862	-0.06709965	0.19585406
1987	19.86000000	-0.13914112	0.05876512	-0.08651558	-0.02010645	0.11757207	0.08971411	-2.36561012	0.42384702	-0.04926773	0.14005338	-0.11883875	0.64423634	-1.05852328	-0.38944392	0.57473841	-0.46695154	-0.64884227	0.48244045	1.01726961	2.12495205	-3.12581846	-0.11454850	-0.07542746	0.10357443
1988	19.87000000	-0.14046452	0.04537036	-0.08311117	0.08263465	-0.06422032	0.18565539	-3.26330882	0.35513816	0.83586609	0.18319662	-0.10071973	0.49997482	-0.82451685	-0.46554187	0.56913612	-1.15863156	-0.51284652	0.55767282	-0.13168724	2.34884260	-2.96297887	-0.06274549	-0.10959128	0.03904921
1989	19.88000000	-0.13800316	0.03259283	-0.07052676	0.16256972	-0.20010668	0.28451772	-3.72946424	0.37317198	1.34619238	0.12549016	-0.08929622	0.32986677	-0.42676570	-0.45066925	0.54630323	-1.39590722	-0.39200065	0.64149902	-0.43787313	3.00477307	-2.84796568	-0.08172040	-0.15317493	-0.01913091
1990	19.89000000	-0.14484121	0.03690533	-0.04977206	0.20875022	-0.25495497	0.36456350	-3.63746523	0.29990156	1.62278188	-0.05924562	-0.05928128	0.18533459	-0.04885597	-0.45090865	0.54591208	-1.18695206	-0.39065762	0.69285948	-0.37740648	3.51743799	-2.81820427	-0.08944242	-0.16523275	-0.01743119
1991	19.90000000	-0.15767176	0.03596124	-0.02702162	0.20233953	-0.25506544	0.40713342	-3.12957811	0.06599790	1.86931423	-0.25223954	-0.00431492	0.08678648	0.24725719	-0.48030691	0.57737445	-0.68683266	-0.49819738	0.73923455	-0.31702582	3.70105896	-2.79461962	-0.06935253	-0.14928469	0.01804080
1992	19.91000000	-0.18035761	0.02160035	0.00799493	0.16008729	-0.21430451	0.40436794	-2.30650421	-0.16423765	2.31165345	-0.36113283	0.04479519	0.04056811	0.38123370	-0.43021171	0.55823950	-0.03401094	-0.61823148	0.72841594	-0.65831098	3.60085502	-2.67531789	-0.14009570	-0.13127148	0.06506025
1993	19.92000000	-0.20463328	0.00000823	0.03674267	0.09844295	-0.12794940	0.37441619	-1.08523391	-0.37198356	2.83496997	-0.38060889	0.10868465	0.05497895	0.35969639	-0.38018861	0.49011905	0.61696817	-0.66418434	0.71461920	-1.33388975	3.38779544	-2.34422195	-0.12464543	-0.13554228	0.10971895
